<?xml version="1.0" standalone="no"?>
<!DOCTYPE svg PUBLIC "-//W3C//DTD SVG 20010904//EN"
 "http://www.w3.org/TR/2001/REC-SVG-20010904/DTD/svg10.dtd">
<svg version="1.0" xmlns="http://www.w3.org/2000/svg"
 width="160.000000pt" height="160.000000pt" viewBox="0 0 160.000000 160.000000"
 preserveAspectRatio="xMidYMid meet">
<metadata>
Created by potrace 1.11, written by Peter Selinger 2001-2013
</metadata>
<g transform="translate(0.000000,160.000000) scale(0.100000,-0.100000)"
fill="#000000" stroke="none">
<path d="M604 1580 c-236 -62 -437 -229 -535 -446 -94 -207 -95 -460 -1 -667
70 -154 218 -311 355 -378 26 -13 47 -27 47 -32 0 -4 4 -6 9 -3 14 9 42 -5 34
-17 -4 -6 0 -8 10 -4 10 4 30 1 45 -5 15 -6 34 -13 42 -16 32 -10 380 -10 373
1 -4 6 2 8 15 5 12 -4 22 -2 22 3 0 5 5 9 11 9 5 0 7 -6 4 -13 -4 -6 1 -3 10
8 12 14 19 16 22 7 3 -8 11 -5 24 10 10 13 18 19 19 14 0 -5 7 -3 15 4 8 7 15
9 15 6 0 -4 7 0 16 9 13 12 19 13 30 4 12 -10 13 -9 8 6 -5 13 -4 16 4 11 7
-4 12 -3 12 3 0 14 55 42 65 33 5 -4 5 -2 2 4 -4 7 0 17 8 24 8 7 15 10 15 6
0 -3 13 8 29 25 17 17 35 28 40 24 6 -3 9 0 6 8 -6 15 29 52 42 44 5 -3 10 3
10 14 2 22 28 51 37 41 4 -3 4 1 0 11 -3 10 -1 18 5 18 26 3 30 4 38 12 4 5 3
7 -2 5 -16 -5 -16 10 0 42 9 17 20 28 25 25 6 -3 7 1 4 9 -3 9 3 35 14 58 41
88 55 178 49 326 -5 139 -7 155 -26 205 -6 15 -9 27 -7 27 3 0 -11 33 -31 73
-111 229 -301 386 -541 448 -101 26 -288 25 -388 -1z m-185 -182 c8 -7 11 -8
8 -2 -4 7 8 11 34 12 26 1 38 -2 34 -9 -4 -6 3 -5 14 3 18 11 23 11 31 -2 5
-8 10 -10 10 -4 0 17 129 17 149 1 8 -7 12 -7 8 -1 -10 17 131 18 151 2 9 -7
13 -8 9 -2 -4 7 13 12 54 13 42 1 58 -2 54 -9 -4 -7 2 -6 14 2 18 11 23 11 31
-2 6 -9 10 -10 10 -3 0 8 21 11 65 11 44 -1 62 -4 58 -12 -5 -8 -3 -8 8 0 20
15 98 17 115 3 9 -7 14 -32 14 -70 0 -40 4 -59 12 -59 7 0 34 -10 60 -22 43
-21 50 -30 83 -100 19 -43 35 -93 35 -113 0 -54 -35 -142 -74 -185 -19 -21
-41 -51 -49 -67 -18 -34 -105 -88 -169 -104 -42 -10 -49 -15 -57 -46 -15 -54
-3 -100 28 -109 39 -11 71 -12 65 -2 -3 4 4 8 15 8 27 0 28 36 2 45 -28 9 -36
43 -16 65 13 15 22 17 44 9 49 -17 71 -46 71 -90 0 -119 -193 -163 -265 -59
-14 20 -25 47 -25 61 0 42 -13 52 -41 31 -13 -10 -38 -24 -55 -31 -44 -17 -54
-74 -23 -126 25 -42 52 -59 94 -58 37 0 52 -11 54 -40 1 -12 2 -31 3 -42 1
-11 1 -53 0 -92 -2 -69 -4 -73 -29 -85 -35 -16 -476 -19 -492 -3 -5 6 -13 32
-16 59 -6 39 -4 47 7 40 11 -6 11 -5 -1 9 -7 9 -11 30 -9 46 2 17 1 28 -4 25
-4 -3 -8 11 -8 31 0 28 3 36 14 32 10 -4 13 -1 9 9 -5 13 2 15 38 12 33 -3 49
1 64 15 11 10 28 16 37 13 10 -2 16 -1 13 4 -6 9 20 32 27 24 3 -3 9 0 14 7 5
8 3 10 -6 4 -10 -6 -12 1 -7 38 4 30 3 47 -4 47 -6 0 -7 4 -4 10 3 5 -11 16
-30 25 -20 8 -51 26 -68 41 l-31 26 -14 -28 c-8 -16 -21 -34 -28 -42 -8 -7
-14 -17 -14 -21 0 -19 -80 -51 -129 -51 -71 0 -106 21 -136 81 -24 47 -27 97
-4 84 5 -3 6 0 3 8 -6 18 67 51 94 43 43 -14 37 -64 -9 -73 -33 -6 -36 -15
-12 -43 14 -16 30 -20 80 -20 45 0 62 4 60 13 -1 6 3 11 10 10 6 -1 17 5 25
15 12 15 11 16 -4 3 -19 -14 -21 -8 -9 24 11 25 -15 71 -43 79 -12 3 -37 6
-56 6 -51 1 -133 32 -173 66 -54 45 -89 122 -91 198 0 35 -4 62 -8 60 -19 -12
3 87 30 140 37 70 56 84 119 92 26 3 49 7 51 8 1 2 4 20 6 41 2 20 10 41 17
46 12 7 12 9 0 9 -11 0 -11 3 -1 15 15 18 41 19 59 3z"/>
<path d="M424 1245 c7 -103 57 -277 112 -393 38 -81 99 -153 144 -172 17 -7
30 -15 30 -19 0 -3 12 -7 26 -8 15 0 29 -5 33 -10 7 -10 151 -12 151 -2 0 8
40 24 53 21 4 -1 7 2 7 8 0 5 7 6 17 3 11 -4 14 -3 9 5 -4 7 4 23 18 37 15 14
26 30 26 36 0 6 5 7 12 3 7 -5 9 -2 5 9 -3 9 0 18 9 21 8 3 14 11 13 18 -3 29
2 40 16 35 8 -4 17 -1 21 5 4 6 3 8 -4 4 -17 -11 -23 11 -7 27 11 12 12 17 2
20 -8 4 -8 8 -2 14 6 4 12 19 13 33 2 14 7 30 12 35 4 6 10 23 14 38 4 15 11
25 16 22 5 -3 12 0 16 6 5 8 3 9 -6 4 -10 -6 -11 3 -7 41 8 74 18 105 31 97 7
-5 7 -2 -1 8 -12 15 -7 59 6 59 12 0 -1 80 -13 82 -6 1 -184 2 -395 2 l-383 1
6 -90z"/>
<path d="M255 1190 c-46 -18 -50 -33 -37 -156 14 -147 36 -193 102 -212 25 -8
52 -16 60 -19 8 -3 26 -6 40 -6 21 -1 25 4 26 31 1 18 -3 32 -7 32 -5 0 -9 8
-9 18 0 10 -3 22 -7 26 -14 14 -42 99 -36 109 4 6 1 7 -7 2 -10 -6 -12 -3 -8
13 4 12 2 22 -4 22 -5 0 -8 6 -5 13 2 6 -2 27 -10 44 -7 18 -13 35 -13 38 1
54 0 55 -32 54 -18 0 -42 -4 -53 -9z"/>
<path d="M1277 1183 c-4 -3 -7 -19 -7 -34 0 -38 -23 -121 -73 -270 -43 -126
-43 -127 -20 -125 13 0 23 4 23 9 0 4 9 7 19 7 11 0 23 5 26 10 4 6 11 8 16 5
5 -4 9 -1 9 5 0 6 4 9 9 6 5 -3 11 3 14 14 3 11 13 20 22 20 11 0 15 5 12 14
-6 16 30 59 43 51 4 -3 6 3 3 14 -3 10 0 22 6 25 6 4 11 19 11 33 0 15 8 35
18 46 9 11 11 17 5 13 -9 -5 -13 0 -13 14 0 14 4 19 13 14 8 -6 8 -3 -1 9 -8
9 -11 20 -9 24 3 5 -1 23 -9 39 -20 41 -97 78 -117 57z"/>
<path d="M785 514 c-9 -61 -34 -155 -47 -171 -5 -6 -36 -19 -68 -29 l-60 -18
0 -53 0 -53 48 0 c27 0 52 -3 56 -7 12 -13 118 -24 110 -12 -6 10 119 5 135
-5 10 -7 12 -6 6 4 -6 10 -2 12 18 8 25 -5 25 -3 29 55 3 68 2 72 -33 80 -68
17 -105 76 -108 172 0 32 -3 60 -5 62 -2 2 -19 6 -39 10 l-35 5 -7 -48z"/>
<path d="M664 384 c-18 -14 -18 -15 4 -4 12 6 22 13 22 15 0 8 -5 6 -26 -11z"/>
<path d="M1229 103 c-13 -16 -12 -17 4 -4 16 13 21 21 13 21 -2 0 -10 -8 -17
-17z"/>
</g>
</svg>
