<?xml version="1.0" standalone="no"?>
<!DOCTYPE svg PUBLIC "-//W3C//DTD SVG 20010904//EN"
 "http://www.w3.org/TR/2001/REC-SVG-20010904/DTD/svg10.dtd">
<svg version="1.0" xmlns="http://www.w3.org/2000/svg"
 width="160.000000pt" height="160.000000pt" viewBox="0 0 160.000000 160.000000"
 preserveAspectRatio="xMidYMid meet">
<metadata>
Created by potrace 1.11, written by Peter Selinger 2001-2013
</metadata>
<g transform="translate(0.000000,160.000000) scale(0.100000,-0.100000)"
fill="#000000" stroke="none">
<path d="M604 1580 c-290 -76 -511 -298 -585 -588 -26 -103 -26 -281 0 -384
49 -190 174 -371 328 -472 24 -16 40 -33 36 -39 -3 -6 -1 -7 5 -3 13 8 69 -20
90 -44 8 -8 11 -9 7 -2 -8 15 0 15 28 0 12 -7 31 -13 42 -15 10 -2 22 -7 25
-11 3 -4 14 -9 25 -11 38 -8 384 -8 380 -1 -3 4 8 10 25 12 18 3 27 0 24 -6
-3 -6 2 -2 10 8 9 11 16 17 16 13 0 -4 13 -1 29 7 16 9 31 12 35 9 3 -4 6 -1
6 6 0 8 6 11 16 7 8 -3 13 -2 10 3 -3 5 1 12 10 15 8 3 13 2 10 -2 -3 -5 1 -9
8 -9 8 0 12 5 10 11 -2 6 10 20 28 30 18 10 44 28 57 40 13 12 21 15 17 9 -4
-7 -2 -13 3 -13 6 0 11 7 11 16 0 8 5 12 10 9 6 -3 10 -1 10 4 0 16 92 111
101 105 5 -3 6 1 3 9 -3 8 2 20 11 27 13 11 15 10 9 -6 -5 -15 -4 -16 4 -4 6
8 9 18 6 22 -5 7 32 67 49 79 5 3 8 10 8 15 -1 5 3 9 8 9 5 0 13 4 18 9 5 6 2
6 -6 1 -11 -6 -13 -4 -8 9 4 10 7 20 7 22 0 3 4 3 9 -1 5 -3 13 0 17 6 4 7 3
9 -4 5 -18 -11 -22 10 -7 30 8 10 15 29 15 42 0 14 6 22 18 22 10 0 13 3 6 8
-6 4 -9 16 -6 27 6 26 8 307 2 367 -3 25 -9 44 -14 40 -5 -3 -7 5 -4 16 4 14
2 20 -5 15 -6 -4 -8 2 -5 15 4 12 2 20 -3 16 -5 -3 -10 0 -10 5 -3 20 -5 26
-17 49 -7 12 -10 28 -6 34 4 6 3 8 -3 5 -8 -5 -25 18 -32 45 -3 10 -46 61
-111 131 -103 111 -236 189 -388 228 -101 26 -288 25 -388 -1z m-224 -180 c-9
-6 -10 -10 -3 -10 6 0 15 5 18 10 9 14 68 12 84 -2 11 -10 12 -10 7 -1 -9 16
45 14 56 -2 5 -6 8 -6 8 2 0 7 16 12 40 11 27 0 38 -4 33 -12 -5 -8 -3 -8 8 0
19 15 82 16 91 1 6 -9 8 -9 8 0 0 16 142 15 152 -1 5 -8 8 -7 8 2 0 6 12 12
28 12 15 0 34 -6 41 -12 10 -9 12 -9 7 -1 -8 15 53 15 73 -1 11 -8 13 -8 8 1
-5 8 2 11 23 11 16 -1 30 -6 30 -12 0 -8 2 -8 8 0 9 14 43 14 61 0 11 -8 13
-8 7 2 -5 9 4 12 41 11 26 -1 54 -6 61 -12 7 -5 12 -33 12 -68 0 -52 2 -59 20
-59 11 0 20 -4 20 -10 0 -5 3 -9 8 -8 14 4 52 -13 52 -23 0 -6 4 -8 9 -5 13 9
81 -149 81 -188 0 -73 -62 -200 -132 -268 -39 -38 -105 -75 -160 -89 -27 -6
-48 -15 -48 -20 0 -4 -10 -11 -22 -15 -12 -3 -51 -27 -86 -51 -35 -25 -80 -50
-100 -55 -21 -6 -40 -15 -44 -22 -14 -20 -9 -136 7 -166 17 -34 66 -62 98 -59
12 2 37 -1 55 -5 l32 -8 0 -74 c0 -105 3 -104 -281 -101 -123 1 -230 6 -237
11 -8 5 -12 19 -9 32 2 13 0 21 -5 18 -13 -8 -7 57 6 75 8 11 8 13 -2 7 -8 -5
-12 -1 -12 11 0 15 9 19 37 21 53 4 118 36 159 77 31 32 34 40 30 83 -5 66
-10 74 -64 102 -26 14 -87 58 -135 99 -86 71 -91 73 -159 82 -88 11 -142 36
-194 88 -53 53 -68 105 -78 263 -3 46 31 128 53 128 13 0 13 2 2 9 -11 7 -9
14 12 35 27 27 47 34 47 15 0 -5 5 -7 10 -4 6 4 8 11 5 16 -4 5 1 9 9 9 9 0
16 -6 16 -12 0 -9 3 -10 8 -2 4 6 15 10 25 8 9 -1 17 4 17 12 0 10 5 12 13 8
9 -6 9 -4 -1 8 -9 12 -10 18 -2 23 8 5 7 11 -2 23 -11 13 -11 15 3 10 9 -4 16
-1 16 8 0 7 -4 11 -9 8 -4 -3 -8 -1 -8 3 0 12 22 33 35 33 5 0 3 -5 -5 -10z"/>
<path d="M280 1191 c0 -5 -6 -16 -13 -23 -41 -43 -55 -70 -51 -101 23 -182 43
-233 95 -244 20 -4 28 -10 25 -19 -4 -11 -2 -11 15 -1 13 8 22 9 27 2 4 -5 23
-10 42 -10 28 -1 36 3 36 17 0 10 -4 18 -9 18 -5 0 -7 9 -4 20 3 11 1 18 -4
14 -5 -3 -9 2 -9 11 0 9 -7 27 -16 40 -9 14 -13 25 -10 25 4 0 -1 14 -9 30 -9
17 -13 36 -9 42 4 7 3 8 -4 4 -8 -4 -12 1 -13 13 -1 12 -2 24 -3 29 -1 4 -6
23 -11 42 -5 19 -10 46 -11 60 -1 14 -2 28 -3 33 -1 10 -61 9 -61 -2z"/>
<path d="M1277 1183 c-4 -3 -7 -19 -7 -34 0 -38 -23 -121 -74 -271 -24 -71
-42 -128 -41 -128 1 0 21 6 43 14 38 14 40 13 36 -2 -2 -9 1 -7 7 6 9 16 18
21 33 17 12 -3 15 -2 8 1 -8 4 -2 18 21 44 39 46 87 163 87 214 0 42 -41 131
-65 140 -21 8 -40 8 -48 -1z"/>
<path d="M1470 346 c0 -2 7 -7 16 -10 8 -3 12 -2 9 4 -6 10 -25 14 -25 6z"/>
<path d="M1410 259 c0 -5 5 -7 10 -4 6 3 10 8 10 11 0 2 -4 4 -10 4 -5 0 -10
-5 -10 -11z"/>
<path d="M1393 235 c0 -8 4 -12 9 -9 5 3 6 10 3 15 -9 13 -12 11 -12 -6z"/>
<path d="M1215 99 c-4 -6 -5 -12 -2 -15 2 -3 7 2 10 11 7 17 1 20 -8 4z"/>
</g>
</svg>
